/* XPM */
static char *_8f51ec0d80243a4d7575941f07f5dccJ0Bc5Yiiw1KQ2uds[] = {
/* columns rows colors chars-per-pixel */
"64 64 256 2 ",
"   c #050202",
".  c #0B0401",
"X  c #090807",
"o  c #160907",
"O  c #17140C",
"+  c #1A1818",
"@  c #0E1313",
"#  c #281917",
"$  c #2B150C",
"%  c #17261A",
"&  c #27241A",
"*  c #342917",
"=  c #191A23",
"-  c #301D2B",
";  c #142C31",
":  c #282726",
">  c #372927",
",  c #392837",
"<  c #293536",
"1  c #383836",
"2  c #2C302F",
"3  c #492919",
"4  c #532D17",
"5  c #78361A",
"6  c #6A3119",
"7  c #4D1D30",
"8  c #512C23",
"9  c #593628",
"0  c #453837",
"q  c #4F2B34",
"w  c #673728",
"e  c #763A26",
"r  c #69302F",
"t  c #5D1C20",
"y  c #0E4932",
"u  c #344836",
"i  c #027133",
"p  c #3B5412",
"a  c #584634",
"s  c #684837",
"d  c #784936",
"f  c #734D2E",
"g  c #65621C",
"h  c #163A4D",
"j  c #323545",
"k  c #6E1E49",
"l  c #572945",
"z  c #4D2E4F",
"x  c #652548",
"c  c #6A2B56",
"v  c #782957",
"b  c #783458",
"n  c #703251",
"m  c #6F2F70",
"M  c #5A2959",
"N  c #104A55",
"B  c #334A50",
"V  c #0B576D",
"C  c #264C72",
"Z  c #0D6477",
"A  c #2B6A76",
"S  c #4E5250",
"D  c #7B5644",
"F  c #6E504E",
"G  c #596768",
"H  c #767B79",
"J  c #6B726D",
"K  c #665D5A",
"L  c #8C381A",
"P  c #A33C15",
"I  c #8F3728",
"U  c #AF2B2C",
"Y  c #8C1B22",
"T  c #934817",
"R  c #A7491A",
"E  c #B44D18",
"W  c #8A4728",
"Q  c #984627",
"!  c #905135",
"~  c #A54827",
"^  c #B85729",
"/  c #B1532D",
"(  c #B6642C",
")  c #996F1D",
"_  c #CC7014",
"`  c #C55628",
"'  c #CF5133",
"]  c #D76A2A",
"[  c #D16D2C",
"{  c #E87430",
"}  c #DC6124",
"|  c #84365A",
" . c #892E57",
".. c #982B68",
"X. c #863666",
"o. c #973768",
"O. c #8E306C",
"+. c #A43767",
"@. c #A73776",
"#. c #B13177",
"$. c #A33148",
"%. c #885946",
"&. c #91514D",
"*. c #896449",
"=. c #8C6855",
"-. c #976B52",
";. c #AA7156",
":. c #95466E",
">. c #B84774",
",. c #AC496E",
"<. c #91786D",
"1. c #AE7668",
"2. c #A8564E",
"3. c #C94A78",
"4. c #CF4B79",
"5. c #CC6D62",
"6. c #D0384E",
"7. c #719212",
"8. c #58AA12",
"9. c #669E25",
"0. c #75807A",
"q. c #1E972C",
"w. c #918D14",
"e. c #94A913",
"r. c #B2AA17",
"t. c #A69329",
"y. c #A2971D",
"u. c #EA8C07",
"i. c #CBB119",
"p. c #CCB729",
"a. c #F1852F",
"s. c #DBC625",
"d. c #B3866E",
"f. c #A1836E",
"g. c #C99071",
"h. c #E68C5E",
"j. c #A9D01D",
"k. c #74308C",
"l. c #52388E",
"z. c #11598C",
"x. c #066788",
"c. c #027896",
"v. c #0F708D",
"b. c #0478A8",
"n. c #0479B8",
"m. c #096AAE",
"M. c #295C9D",
"N. c #5F588C",
"B. c #057CC7",
"V. c #116ECB",
"C. c #2264C5",
"Z. c #3F3E8A",
"A. c #873090",
"S. c #B63484",
"D. c #8F31A6",
"F. c #C63889",
"G. c #D33A93",
"H. c #E13397",
"J. c #B6488C",
"K. c #93659E",
"L. c #CE4D8C",
"P. c #E55096",
"I. c #048595",
"U. c #0287A8",
"Y. c #038AB7",
"T. c #0494B9",
"R. c #0F90AB",
"E. c #07A6BB",
"W. c #3198B5",
"Q. c #768887",
"!. c #5A9CAB",
"~. c #048BC5",
"^. c #0298C6",
"/. c #049AD6",
"(. c #0B8BD2",
"). c #04A7C8",
"_. c #05A8D8",
"`. c #0DB0D5",
"'. c #09AEE8",
"]. c #16A5E7",
"[. c #5BB3CB",
"{. c #868887",
"}. c #999998",
"|. c #8F948F",
" X c #A79894",
".X c #99A69A",
"XX c #AEA49B",
"oX c #979CA4",
"OX c #A59EA5",
"+X c #9BA4A4",
"@X c #90A8AA",
"#X c #ABABAC",
"$X c #A5A7A7",
"%X c #B3ADAD",
"&X c #ACAEB2",
"*X c #ACB6B7",
"=X c #B3B2B2",
"-X c #B8BAB9",
";X c #B0AFB0",
":X c #D5AB8F",
">X c #E9B497",
",X c #C6B8B3",
"<X c #E9B6A9",
"1X c #DE9998",
"2X c #BAC2BB",
"3X c #EBC198",
"4X c #D0C6BB",
"5X c #EAC4A7",
"6X c #F7D8BB",
"7X c #F1CDB4",
"8X c #F2E0BC",
"9X c #BBBAC3",
"0X c #C4BDC1",
"qX c #BBC4C5",
"wX c #C4C4C4",
"eX c #C4CBCA",
"rX c #CBCCCC",
"tX c #C7C7C6",
"yX c #D1CDCA",
"uX c #CCD3CD",
"iX c #CACED1",
"pX c #CCD2D3",
"aX c #CBD6D5",
"sX c #D3D4D4",
"dX c #D4DBDB",
"fX c #DBDCDB",
"gX c #D5D8D7",
"hX c #D5D1CF",
"jX c #F6D8C5",
"kX c #E1DDDB",
"lX c #E9CFC9",
"zX c #DCE1DD",
"xX c #F8E5CA",
"cX c #E4E2DE",
"vX c #FBE8D5",
"bX c #F4F0D7",
"nX c #DADEE1",
"mX c #DDE2E3",
"MX c #DBE7E7",
"NX c #E2E4E4",
"BX c #E5EBEC",
"VX c #EBECEC",
"CX c #E6E7E8",
"ZX c #F3ECEB",
"AX c #F4F2EC",
"SX c #ECEEF1",
"DX c #E4ECF5",
"FX c #EDF1F3",
"GX c #EBF9F6",
"HX c #F3F4F5",
"JX c #F4F6F9",
"KX c #F5FAFA",
"LX c #FAFBFC",
"PX c #F9F8F7",
"IX c #EFEFF0",
"UX c #EADCE6",
/* pixels */
"-XS 2XgX4XeXrX4X%XS % m D.m z D.D.D.D.A.j 7 A.k.l.Z.V./.V x.^.g i.p.p.y.i.s.i.g p ) e.8.p w.) f 5 $ & 4 T r * % i q.i i i q.i i ",
"S |.zX4XsXuXeX2X2XS - m A.k.m M k.A.m j - m k.m Z.M.~.~.N N Y.C e.s.p.r.r.i.i.r.r.s.e.p g e.E Q * 4 4 T 5 Q ` 0 = % i i y y i i ",
"K uXdXuXpXtX4XtX.XB 2 z D.k.k.k.z j 2 M k.k.A.l.Z.M.Y.c.h h v.V K p.s.r.r.i.i.s.i.i.) g i._ R 5 3 e L P 4 T E ~ % & * @ % @ % % ",
"2XzXeXzXtXwXqX-X0X|.u 0 m k.m A.k.k.m m k.k.k.Z.z.(.T.V ; j V N w.e.r.s.i.i.p.r.w.y.w.r.r.E T 4 5 W Q ~ w W I ` Q 4 W 4 & % % % ",
"zXuXgXgXeXtXeX2XeXtXS 2 j m D.k.m k.A.A.k.k.k.l.m.~.V h < C V ; p 9.9.9.p.s.y.g t.r.8.7.( ` 4 4 5 P T R e L 6 I E 5 T I L 5 5 5 ",
"cXhXzX4XeXuX4X2XcXXX2 % 1 j m D.D.D.D.k.l.O.A.v.Y.C h h Z.z.Z.; B 9.9.8.8.7.e.i.p.7.7.! ` 5 w 9 ~ ~ E I W 5 * R P Q 4 ~ W T T T ",
"uXzXuXuXuXsX=X#X=XK % , , : 2 j M M z N.k.M z Z V Z x.m.M.z.M.h g e.w.9.8.8.j.s.e.9.T { ~ a e e ] T ` e L 5 @ Q ' P 3 I T ~ P L ",
"uXcXrXgXrXgXuX$X*X|.H G > 1 : & : % j j 1 h h h c.b.n.C.z.M.z.2 1 t.s.j.r.y.r.7.9.D _ _ 6 5 d ~ [ P _ I e 5 + # W P 8 5 P ~ Q Q ",
"uXNXqXzXuXzXuXVXzXwX0X+Xu > < V v.u : N c.U.m.Y.n.m.m.m.m.C h : a a w.p.s.s.e.S 9.! u.) f R f ( [ P } f q I # * T P 8 6 R R P ~ ",
"sXzXuXzXuXzXuXdXuXtXdXrX.X0 2 B b.b.b.Y.^.^.~.n.m.m.m.B.b.h # : = w.t.g t.p.t.9.*._ u.5 W E 5 [ [ T } Q 5 L & Q } ~ 3 4 / R / Q ",
"uXcXuXcXtXBXNXuXfXeXfXfXzXS < ; V b.^.^.).T.n.m.m.V.V.~.z.h 2 < h g t.g t.g g 9.) u._ e R 5 5 { [ ! { E Q R 4 Q { I 6 f / P R R ",
"zXMXuXNXuXzXFXVXrXmXnXNXNXG : , Z )._.T.T.b.n.b.B.~.b.z.C , = < < * 0 f t.g 8.7.( u.T W } f W { ] ~ _ ^ ! R Q 4 T L w L ` ~ T P ",
"uXzXgXzXMXsXuXrXfXzXdXAXNX.XS * V Y.Y.Y.~.n.B.n.U.v.B 0 : $ $ o O X X O * a 9.t.u.u.5 W ' d T a.[ ~ _ [ Q E U e 5 I * E ^ Q ^ R ",
"zXuXfXgXfXNXBXNXzXdXBXCXtXdXQ.& N Y.~.R.U.b.V.m.C z 3 o O o . o . X o   X @ p ) u.u.f ! ~ q R a.{ ! ] { Q ` E ( Q r 5 ] Q E / ~ ",
"HXgXaXzXfXsXdXzXdXNXzXeXhXVXQ.: B U.Y.~.~.B.V.M.K u $ o # # # X   X .   . O . o y.u.I ~ R > ! { a.! / { E ^ } U R ! E R P ` P R ",
"gXLXsXpXzXzXzXdXfXuXuXaXIXnXG 1 c.b.b.B.V.V.n.G n 3 O O > # O X o .   . .   o o T u.f I ` ( f { a.[ Q { } U ' ' 6.U 6 7 U I Y Y ",
"0.eXAXGXgXsXgXgXgXkXDXAXMX0.2 Z b.n.B.(.C.B.V.F a 1 # : q o o   . o X X       X o ( ! ~ [ ( 6 ' { } U I U U Y U U Y t # t t t Y ",
"2X|.#XuXVXGXGXAXHXKXBX4X0.1 B C Y./.B.m.(.(.N.S F 0 : 2 & .     X     X . . . .   4 T f / ~ 9 4 U U t x  .7 ..7 ..k v k l k t - ",
"VXVX2X.X.X#X2X2X=X+XJ 1 2 C Z b./.n.n./.^.v.S K K S 0 > # o .   @   o o           # ( 4 q e q x x ..#.v S.v #.v S...O.#.v .. .t ",
"0.*XgXMXuX2X|.|.J 2 * 2 N R.T.).~.m.(./.Z N a F F F a * $ $ $ $ o   .   . o X . o # ' 4 > c x S.X.O.H...#.@.@.S. ...v  .k v 7 k ",
"Q.#XaX$X#X2XaX$X{.u < j R.T.^.~.b.]._.Z N v.0 F K f.d.-.;.;.*.W 9 3 $ $ $ # o o o o I $.r m v G.G.v F.S...F.#...k v v v v k 7 k ",
"2XtX*X#X$X2X2XQ.a 2 2 N /.T.^.Y._.'.Y.V v.^.> a <.7XjX5X5Xg.g.;.1.;.! f s 3 o $ O o I H.v c k #.H.#.#.F.+.#.#.o.O...v x 7 = @ @ ",
"f.0.|.zXpXSXzXeXQ.S 1 v.].R.T.^.'.T.Y.c.).R.0 F XXxX6X5X5X:Xg.d.d.;.-.%.r 9 8 F # o I H.S.l l  .F.G.@.@.@...#.@.O...c 7 = @ = - ",
"Q.qXaXVXuXmXgXpX+XK : c._.b.U.`.).Y./.T.'.v.a <.xXbX:Xd.<.<.;.1.;.<.D 9 * * s D r = ..F.G.c q , O.@.@.+.S.S.+.m c v 7 k l 7 k c ",
"aXMXfXMXpXzXrXsX9XS 1 I._.B U.'.T.`.^.T.'.I.a f.xX7X:X-.d %.d.:Xd.! s 8 9 9 9 F a - S.#.G.S.M 7 l &.,.3.+.o.o. .7 c l k ....l l ",
"MXMXdXHXpXMXaXeXiXS 2 R.^.B ^.`.Y.`.R.~.`.!.s f.xX5X1.=.8 4 ;.5Xg.f 4 * * 8 w %.w o G.@.S.L.F.o.o.>.+.$.>.>.b v l x ..S.k l k k ",
"$XdXpXBXfXMXeXeXsXQ.> c._.Z ^.`.R.'.b./.[.xX5X5XvX3Xd.1.w 3 ;.3X;.W 3 $ $ * 3 D s > >.F.@.G.S.,.,.,.+.3.6.,.b x  .S.#.k : q 5./ ",
"aX2X+XtXdXfXzXaXfX+X3 v.'.v.R.'.^.`.).b.!.bXxXxXxX6Xh.d.;.g.3X5Xg.e s 9 8 9 e D %.=.%.H.L.F.J.>.,.+.3.+.n v v X.F...7 @ 8 / ` } ",
"KXHXdXeX*X#XeXaXdXwXS < ~.).U.].).^.`._.!.6Xg.xXbX8X3Xh.[ g.<XjXg.d %.r e r D %.*.;.e O.3.,.#.,.:.4.$.b X.z o.F. .l - z I { / ( ",
"pXMXBXGXBXeX$X-XiX-XG 2 A '.~.R.`.].U.^.!.>X1XvXvXvX7X1X;.2.<XlX1.D %.6 ! W D =.D f | | X.>.>.2.4.o.,.n c #.#.o.- z - ! / / { ^ ",
"pX-XqXuXdXFXMXaX;XJ B 1 h Y.`.).T.`.`.~.x.,X7XjXvXZX6X1.6 ;.:X:X1.w D w e d -.-.*.s +.>.,.4.>.3.| ..@.b ,.F.v - v 7 > Q { / ( [ ",
"HXaXSXaXaXqXeXBXIXaX0.a B v.R.'.`.).^.T.U.!.bXxXvXxX:X! g.>X5X:X;.e D s 8 d ! =.&.! :.,.4.,.>.:.| n c F.S.l q 7 m 7 / ( ( [ ^ [ ",
"qXpXGXfXSXqXaXqXtXSXIX*XB B Z c.`.`._.]./.~.@X4XxX8X1.!  X1X>X5.&.r F F 9 4 ! =.%.&.,.4.,.4.:.v X.c L.F.l - ,  .@.7 R { / ` { [ ",
"$XqX9XQ.2XCXKXpXeXnXDXJXiXS , j N C v.U.U.R.^.`.jX6X:X! w 1.jX<Xg.<.D $ 3 f d D %.:.4.,.4.D o.v n L.S.x z , v O.7 &.) [ a.^ ( ( ",
"KXFXdX}.*XMXmXmXGXgXpXSXLXwXS B W.A G z.v.v.x.v.7XbX3Xd.<Xd.:X X;.=.r 9 w I D =.:.3.3.>.o.X.M X.F.J.b 7 7 c #.F 2 W { ^ [ h.[ ! ",
"fXFXGXKXNXeX+XgXAXpXaXaXGXKX@XS K.K.N.N.K.b n v 1XxX7X>X<XbX7X5.2.&.&.*.D d =.&.3.3.,.,.b O.n J.G.c q z : - z , j * ( { ^ ' [ ( ",
"zXaXfXGXSXDXdXdX-XaXDX9XnXJXCXH 1 @.J.L.J.X.,.,.P.bXxX6X5X5X4Xg.2.&.%.d s D =.,.L.,.:.b n v L.4.b < N v.R.v.N ; $ ; > ! { ] ( L ",
"mXaXpXeXnXGXFXSXeX}.&XMXiXBXLXqXB  .J.L.>.:.,.K.P.cXxX8XxX5X>Xg.-.%.D D D =.-.P.:.o.&.c n >.4.b B I._.).T.R.N N h & O & 9 / ^ f ",
"nXnXdXeXeXnXSXGXGXaX0.qX*XqXJXGXQ.0 M L.L.:.O.,.P.<XvX8XxX7X8Xh.( ;.%.%.%.-.5.:.b n b n >.L.b C Y.`.).I.x.U.Z V N = : + @ 4 Q 3 ",
"*XpXaX-X{.}.$XpXGXKXqX|.pX&XpXGXpXB 0 L.L.m &.:.P.<XbX6X7X7X>Xg.;.2.D *.d <.,.z n X.n >.4.X.C T.`.`.I.I.U.c.z.N h ; + + j 1 3 e ",
"9XiXeXiX9X}.J S |.MXGXaXQ.Q.&XDXJX X< J.L.:.,.:.P.1XZXjX6X>Xg.g.*.D d D *.-.9 c m | 3.3.F C C._.E.E.^.T.x.V B.x.m.V h X 1 j @ > ",
"nXsXpXpXnXMXDX@XK G qXKXqX+X*XdXLXaXS o.P.X.:.k.L.1XvXjXxX5Xg.d.! ! D *.;.J l :.F o.P.:.S C T.`.).T./.b.V Y.(.m.m.c.N h N % @ + ",
"FXnXdXpXiXiXdXMXzX0.S $XGXfXdXqXCXGX|.z P.J.:.:.+.<XZXxXjXjX<Xg.*.! =.*.-.,.n m ,.P.@.l k.M.).`._.T.Y.Z x.^.b.m.b.).N V v.O = % ",
"nXDXJXDXdXdXaXaXfXNX+XB +XBX-XqXMXKXqXS K.J.:.<.1.lXbXxXjX6X>Xg.-.%.%.*.&.-.F :.H.J.b b m M.'.`.T.U.x.Z ^.T.b.z.N (.x.; ; = $ + ",
"*XqX2XMXBXDXpXiXdXiXdX*XB *XmXuXaXcXVXJ M K.<X1.>XbXbXxX8X5X3Xg.-.! %.*.*.-.%.1.3.z m ,.B n._.R.I.U.V Z '.T.~.m.x.m.x.N V N @ + ",
"}.$X0.oX&XnXDXdXnXDXdXaX}.|.aXqX+XsXKX-X&XVXGX1.7XbXvXlX7X3X:Xg.-.%.*.! *.-.%.S }.:.:.S C B.].T.Y./.Z c.'.E./.m.c.).T./.~.N = = ",
"S B S +XN.oXmXGXdXmXBXwXqXeXhXzXMXsXCXAXPXLXKX4X8XxXxX8X5X:Xg.g.;.*.*.*.=.D F <.$X X XN.N.W.`.U.c.U.Z I._.)./.c.Z Y.T.U.U.x.; % ",
"+X1 J zXVX+XH dXCXsXHXVXNXfXhXyXMXJXCXlXcXSXLXLXjXlX6X8X7X:Xg.d.;.-.;.%.! =.<.$X+X{.{. X.X}.oXQ.!.M.B c.'.)._.~.T.~.Y.^.^.b.N % ",
"0.u S wXLXnXS S @XBXHXPXfXcX4XyXhXZXPXAXCXCXAXPXLXAXlX4X<X:Xd.d.d.1.-.*.<. X=X$X|.}.|.}.}.|. XXX X%X.XQ.W.`.).).U._.'.~.I.~.V ; ",
"S < S iXLXBXqX{.rXLXVXcXcXkXcXyXyXkXZXPXLXPXIXVXFXKXPXAXvX,XXX:X:X:X%X,X-X=X#X}.OX#X X}. X X$XXX-X,X,X#X X[.`._.c.U.T.U.).~.x.h ",
"-XH oXKXKXnXCXSXHXLXIXfXkXsXPXkXkXhXfXCXPXPXPXJXSXHXJXHXHXNXnXkXfXuXwX9X%X#X$X;X#X%X.X}.OX$X%X=XtX-X,X-X#X+X[._.U.b.^._.'.c.c.V ",
"GXKXJXJXBXnXBXKXLXLXLXcXyXyXPXZXkXkXkXnXCXAXPXPXLXHXIXVXVXUXsXiXrXrXeX4X-X#X%X#XOX%X X.X$X%X%X=X2X-X9XqX*X X+XE.).Y.^._.Y.c.Y.; ",
"DXHXJXDXBXVXPXLXLXAXHXAXtXtXZXLXCXCXCXNXnXVXIXHXZXIXIXVXNXkXgXhXuXhXtX,X=X=X=X#X%X$XOX#X%X;X;X-XqX%X-XyX%X X,X[.).).U.I.v.'.b.+ ",
"pXBXMXnXnXDXFXLXLXLXCXPXsXtXVXPXJXIXZXUXUXUXSXHXJXHXSXSXNXkXnXfXsXyXwXwX9X-X-X%X%X$X#X%X=X;X=X-X9X.XwXwX$X|.9XOX`._.E.c.c./.h + ",
"nXDXDXJXBXNXLXPXLXLXVXPXNXtXCXPXKXIXVXIXFXSXDXIXDXBXBXCXBXNXdXsXhXiXwXiXtX9X9X=X%X#X%X%X#X#X;X-X;X}.0X*X#X|.-XOX!.E.E.E.R.I.2 > ",
"eX9XMXnXnXKXLXLXHXLXLXZXZXrXcXPXKXHXIXSXSXVXSXSXIXZXCXNXkXnXgXfXhXyXrXtXwX9X,X,X=X$X=X=X#X#X=X%X$XOX-X.X=X X,XOX XR.b.E.).R.A F ",
"MX&XqXMXFXLXPXLXKXKXLXPXJXhXCXPXJXJXPXIXIXIXFXFXSXVXVXkXkXkXfXfXsXsXiXrXrXwX0X0X-X;X%X#X%X#X&X&X$X$X$X=XOX}.4X}. X!.n.b.c.^.`.R.",
"MXaX*X*XDXJXLXLXPXPXLXPXHXsXFXLXJXJXHXZXIXIXIXIXSXBXUXnXkXgXgXsXhXsXhXiXrX0XwX0X-X=X#X#X#X#X#X&X$XOXOX&X}.+X-X}.}.oXB.(.U.x.c.T.",
"MXMXiXdXLXGXKXLXHXJXPXPXSXkXPXLXHXHXHXHXIXIXJXIXSXCXNXdXfXgXgXsXsXgXhXhXrXrXwX2X-X-X=X#X#X#X#X#X$XOX}.&X|.=X-XoX|.XXN.~.^.T.c.x.",
"MXMXnXLXLXFXJXLXHXHXPXKXSXCXLXKXHXJXHXHXJXIXSXSXSXCXUXfXfXsXsXfXdXdXgXgXsXrXtX0X-X-X;X#X#X#X$X#X#XOX{.$X<.9X*XOX|.XX@Xz.c.Y.T.Y.",
"nXSXdXKXHXIXPXLXJXJXHXPXIXFXLXJXJXJXJXHXJXIXSXSXVXCXnXfXhXiXsXgXfXfXfXsXsXhXtXwX0X-X#X#X$X&X$X#X&XOX{.}.H ,X&XOX.X$X2XM.x.h V x.",
"nXDXJXKXPXVXJXLXJXJXFXLXPXJXLXJXLXJXJXHXJXZXSXDXVXUXnXgXiXrXrXfXNXnXNXnXgXsXiXtX9X-X;X#X$X$X$X$X#X+X{.{.{.,X&XOXXXXX%X@XY.V x.Z ",
"BXmXLXHXIXIXFXLXJXJXIXPXLXJXLXJXLXJXJXJXIXIXVXVXNXNXgXsXtXtXrXgXUXCXNXnXnXsXiXtXwX9X&X#X#X$X$X&X$X+XK.0.|.-X$X$X.X%X&X%XW.W.U.c.",
"nXFXLXLXZXCXJXLXLXIXIXJXLXJXJXLXLXPXJXJXJXIXVXVXNXnXsXhX0XtXtXgXCXCXUXnXnXgXhXtXwX9X&X#X$X&X&X&X$X.Xf.J }.-X#X$X#X&X-X%X@X].E.^."
};
